<?xml version="1.0" encoding="utf-8"?>
<!-- Generator: Adobe Illustrator 16.0.4, SVG Export Plug-In . SVG Version: 6.00 Build 0)  -->
<!DOCTYPE svg PUBLIC "-//W3C//DTD SVG 1.1//EN" "http://www.w3.org/Graphics/SVG/1.1/DTD/svg11.dtd">
<svg version="1.1" id="Layer_1" xmlns="http://www.w3.org/2000/svg" xmlns:xlink="http://www.w3.org/1999/xlink" x="0px" y="0px"
	 width="262.048px" height="253.012px" viewBox="0 0 262.048 253.012" enable-background="new 0 0 262.048 253.012"
	 xml:space="preserve">
<g>
	<circle fill="#94AEBD" cx="134.12" cy="140.057" r="83.66"/>
	<g>
		<path fill="none" stroke="#FFFFFF" stroke-width="2" stroke-miterlimit="10" d="M191.531,79.209"/>
		<path fill="none" stroke="#FFFFFF" stroke-width="2" stroke-miterlimit="10" d="M67.943,191.235"/>
		<circle fill="#FFFFFF" cx="114.365" cy="120.832" r="5.04"/>
		<circle fill="#FFFFFF" cx="156.719" cy="120.161" r="3.81"/>
		<circle fill="#FFFFFF" cx="159.665" cy="96.394" r="3.81"/>
		<circle fill="#FFFFFF" cx="124.729" cy="194.421" r="3.81"/>
		<line fill="none" stroke="#FFFFFF" stroke-width="2" stroke-miterlimit="10" x1="123.129" y1="55.39" x2="101.058" y2="215.199"/>
		<line fill="none" stroke="#FFFFFF" stroke-width="2" stroke-miterlimit="10" x1="83.557" y1="73.407" x2="134.12" y2="223.717"/>
		<line fill="none" stroke="#FFFFFF" stroke-width="2" stroke-miterlimit="10" x1="52.68" y1="120.831" x2="200.458" y2="87.238"/>
		<line fill="none" stroke="#FFFFFF" stroke-width="2" stroke-miterlimit="10" x1="191.531" y1="79.209" x2="83.557" y2="206.709"/>
		
			<line fill="none" stroke="#FFFFFF" stroke-width="2" stroke-miterlimit="10" x1="142.904" y1="224.439" x2="217.781" y2="142.959"/>
		<line fill="none" stroke="#FFFFFF" stroke-width="2" stroke-miterlimit="10" x1="204.125" y1="91.531" x2="173.293" y2="213.99"/>
		<line fill="none" stroke="#FFFFFF" stroke-width="2" stroke-miterlimit="10" x1="67.59" y1="89.806" x2="201.968" y2="182.555"/>
	</g>
	<g>
		<path fill="#FFFFFF" d="M122.365,23.26c22.635,0,21.626,71.06,1.215,71.06c-20.411,0-7.478-31.582-17.38-31.582
			c-9.073,0-16.866,6.32-17.102,8.711C89.528,66.777,100.761,23.26,122.365,23.26"/>
		<g>
			<path fill="#FFFFFF" d="M122.365,24.76c12.08,0.34,14.413,19.55,15.056,28.342c0.842,11.511,0.375,28.174-8.166,37.104
				c-4.189,4.381-11.604,3-14.591-2.053c-3.16-5.344-2.188-12.719-2.708-18.663c-0.283-3.227-1.187-7.989-5.256-8.223
				c-5.86-0.337-17.327,3.104-19.048,9.784c0.982,0.133,1.964,0.266,2.946,0.399c0.889-8.011,4.5-16.447,7.815-23.674
				C102.844,38.117,110.321,25.092,122.365,24.76c1.931-0.053,1.936-3.053,0-3c-12.282,0.338-20.092,11.812-25.17,21.676
				c-4.336,8.422-8.54,18.495-9.597,28.014c-0.19,1.709,2.533,2.001,2.946,0.399c1.361-5.282,11.344-7.438,15.655-7.61
				c2.555-0.102,2.671,4.282,2.818,5.959c0.525,5.993-0.11,12.495,2.411,18.128c2.369,5.292,7.802,8.298,13.624,7.375
				c4.644-0.737,7.767-4.461,9.905-8.382c6.332-11.608,6.695-27.413,4.839-40.172c-1.397-9.61-5.266-25.043-17.433-25.386
				C120.43,21.706,120.435,24.706,122.365,24.76L122.365,24.76z"/>
		</g>
	</g>
	<g>
		<path fill="#FFFFFF" d="M65.916,47.237c6.854,0,38.465,27.042,38.465,56.749c0,9.124-2.823,12.412-6.904,12.412
			c-9.202,0-24.805-16.703-28.896-20.791c-0.801-0.801-1.504-1.154-2.121-1.154c-3.928,0-10.695,13.806-10.695,17.429
			c0,0-4.703-35.317-4.703-45.981C51.062,55.234,59.06,47.237,65.916,47.237"/>
		<g>
			<path fill="#FFFFFF" d="M65.916,48.737c3.681,0.208,7.804,4.143,10.421,6.332c5.279,4.415,9.918,9.629,13.984,15.166
				c4.657,6.34,8.332,13.389,10.632,20.915c1.627,5.326,5.131,21.217-2.314,23.62c-5.741,1.854-14.124-6.266-17.881-9.509
				c-4.235-3.656-7.842-8.171-12.246-11.592c-6.398-4.97-13.959,14.01-14.247,18.213c1,0,2,0,3,0
				c-1.196-8.997-2.282-18.009-3.246-27.034c-0.602-5.635-1.178-11.288-1.416-16.952C52.265,59.813,56.568,49.272,65.916,48.737
				c1.923-0.11,1.934-3.111,0-3c-7.26,0.416-12.271,6.006-14.943,12.349c-2.569,6.096-1.21,13.662-0.626,20.035
				c1.034,11.279,2.426,22.534,3.918,33.761c0.25,1.879,2.864,1.978,3,0c0.301-4.394,4.697-14.227,9.089-15.912
				c0.962-0.369,4.963,4.533,5.562,5.128c2.766,2.748,5.633,5.387,8.614,7.899c7.192,6.059,23.048,15.764,25.024-0.216
				c1.968-15.913-5.675-31.212-15.194-43.425c-4.169-5.348-9.033-10.328-14.427-14.448c-2.816-2.15-6.307-4.961-10.018-5.17
				C63.982,45.627,63.992,48.628,65.916,48.737L65.916,48.737z"/>
		</g>
	</g>
	<path fill="#FFFFFF" stroke="#FFFFFF" stroke-miterlimit="10" d="M39.706,100.638c0.619-0.058,1.106-0.077,1.393-0.103
		c1.913-0.179,59.356,23.824,60.934,40.735c0.484,5.184-3.32,7.432-8.938,7.955c-12.707,1.185-34.704-6.432-37.464-8.786
		c-0.513-0.438-0.972-0.616-1.375-0.579c-2.74,0.256-3.11,10.452-2.407,17.991c0,0-20.995-30.576-22.242-43.948
		C28.546,102.539,36.209,100.964,39.706,100.638"/>
	<g>
		<path fill="#FFFFFF" d="M195.137,127.407c42.223,0,41.225,28.593,41.225,28.593c0,28.928-31.582,75.141-99.075,75.141
			c-69.821,0-95.42-64.502-95.42-68.158c0-3.657,2.659-5.65,2.659-5.65s6.317,0,13.632,0c7.313,0,34.909,15.958,34.909,21.609
			c0,5.652-10.64,5.984-10.64,5.984H57.825c0,0,22.275,39.896,77.466,39.896c55.189,0,77.135-48.873,77.135-53.195
			s-1.662-12.302-11.639-12.302c-9.973,0-30.587,9.309-41.561,9.309c-10.97,0-14.959-8.312-14.959-11.97
			S153.911,127.407,195.137,127.407 M195.137,119.428c-24.259,0-38.541,8.335-46.255,15.325
			c-9.238,8.376-12.593,17.694-12.593,21.911c0,8.363,7.971,19.949,22.938,19.949c6.789,0,15.537-2.619,24.001-5.156
			c6.496-1.947,13.86-4.15,17.56-4.15c1.626,0,3.454,0,3.643,3.675c-2.17,7.281-22.683,45.862-69.139,45.862
			c-30.828,0-50.387-13.514-60.887-23.938h8.023c0.083,0,0.167-0.004,0.25-0.005c12.69-0.397,18.37-7.296,18.37-13.96
			c0-8.596-12.549-16.139-18.58-19.765c-4.916-2.954-17.125-9.825-24.308-9.825H44.526c-1.728,0-3.408,0.561-4.79,1.596
			c-2.698,2.027-5.851,6.391-5.851,12.035c0,5.073,8.334,24.082,23.613,40.828c14.695,16.106,40.465,35.311,79.788,35.311
			c40.67,0,66.106-15.692,80.276-28.856c16.489-15.314,26.742-36.058,26.781-54.167c0.035-1.98-0.193-13.328-9.673-23.145
			C226.006,123.98,212.704,119.428,195.137,119.428L195.137,119.428z"/>
	</g>
	<g>
		<path fill="#4B5D75" d="M65.986,50.767c5.984,0,33.579,23.607,33.579,49.54c0,7.965-2.463,10.835-6.027,10.835
			c-8.033,0-21.654-14.581-25.225-18.149c-0.7-0.7-1.313-1.008-1.852-1.008c-3.429,0-9.336,12.052-9.336,15.215
			c0,0-4.106-30.831-4.106-40.141C53.019,57.748,60.001,50.767,65.986,50.767"/>
		<path fill="#4B5D75" d="M40.058,102.987c0.533-0.049,0.956-0.067,1.204-0.09c1.655-0.155,51.277,19.929,52.605,34.162
			c0.407,4.362-2.887,6.264-7.747,6.718c-10.989,1.023-29.996-5.341-32.378-7.317c-0.442-0.367-0.839-0.518-1.188-0.485
			c-2.37,0.223-2.711,8.807-2.12,15.152c0,0-18.09-25.696-19.14-36.95C30.403,104.612,37.032,103.27,40.058,102.987"/>
		<path fill="#4B5D75" d="M195.137,127.407c42.223,0,41.225,28.593,41.225,28.593c0,28.928-31.582,75.141-99.075,75.141
			c-69.821,0-95.42-64.502-95.42-68.158c0-3.657,2.659-5.65,2.659-5.65s6.317,0,13.632,0c7.313,0,34.909,15.958,34.909,21.609
			c0,5.652-10.64,5.984-10.64,5.984H57.825c0,0,22.275,39.896,77.466,39.896c55.189,0,77.135-48.873,77.135-53.195
			s-1.662-12.302-11.639-12.302c-9.973,0-30.587,9.309-41.561,9.309c-10.97,0-14.959-8.312-14.959-11.97
			S153.911,127.407,195.137,127.407"/>
		<path fill="#4B5D75" d="M124.09,25.82c19.503,0.661,16.562,61.751-1.024,61.155c-17.586-0.595-5.522-27.381-14.054-27.671
			c-7.818-0.265-14.716,4.944-14.989,6.995C94.527,62.291,105.474,25.189,124.09,25.82"/>
	</g>
</g>
</svg>
